<?xml version="1.0" standalone="no"?>
<!DOCTYPE svg PUBLIC "-//W3C//DTD SVG 20010904//EN"
 "http://www.w3.org/TR/2001/REC-SVG-20010904/DTD/svg10.dtd">
<svg version="1.0" xmlns="http://www.w3.org/2000/svg"
 width="500.000000pt" height="500.000000pt" viewBox="0 0 500.000000 500.000000"
 preserveAspectRatio="xMidYMid meet">
<metadata>
Created by potrace 1.16, written by Peter Selinger 2001-2019
</metadata>
<g transform="translate(0.000000,500.000000) scale(0.100000,-0.100000)"
fill="#000000" stroke="none">
<path d="M0 4640 c1 -215 5 -360 11 -360 5 0 9 -9 9 -20 0 -11 -5 -20 -12 -20
-8 0 -9 -3 -2 -10 12 -12 75 -20 68 -9 -3 5 -13 9 -23 9 -13 0 -20 9 -23 30
-4 29 -3 30 31 27 29 -2 36 -7 35 -24 0 -17 3 -19 17 -10 15 9 15 12 2 25 -10
10 -11 18 -4 25 16 16 13 34 -4 41 -12 4 -13 2 -6 -13 13 -23 3 -35 -16 -20
-10 9 -13 8 -13 -1 0 -8 -3 -11 -6 -7 -3 3 -17 2 -30 -3 -22 -9 -24 -7 -24 18
1 26 1 26 16 7 10 -13 17 -16 22 -9 4 6 15 10 25 8 12 -2 15 1 9 9 -5 7 -9 30
-9 52 0 27 1 31 4 12 2 -15 13 -32 24 -37 22 -12 25 -1 7 19 -10 11 -10 13 0
7 6 -4 12 -2 12 4 0 6 5 8 10 5 6 -3 8 -18 5 -33 -3 -15 -2 -21 1 -14 3 6 9
10 14 7 4 -3 6 5 3 17 -4 22 -4 22 11 4 14 -18 14 -22 -2 -51 -13 -21 -16 -37
-11 -50 8 -17 8 -17 6 5 -1 14 3 24 9 23 10 -2 14 11 15 54 1 19 4 20 21 10
16 -10 21 -9 29 6 6 9 17 17 25 17 10 0 12 -5 8 -12 -6 -10 -4 -10 8 0 22 18
58 23 59 9 0 -7 4 -2 10 11 5 13 14 20 20 16 8 -4 7 -9 -2 -15 -8 -5 -9 -9 -4
-9 6 0 2 -7 -8 -14 -12 -10 -15 -16 -7 -21 13 -8 23 -1 26 18 1 7 5 20 9 29 5
13 0 21 -19 29 -27 13 -33 24 -16 34 15 9 12 22 -5 22 -8 0 -14 -7 -13 -16 2
-10 -5 -15 -22 -15 -17 0 -26 6 -31 24 -4 14 -7 19 -8 11 -1 -8 -3 -12 -6 -9
-3 3 -1 16 4 29 5 13 10 19 10 13 1 -6 7 -11 14 -12 38 -5 54 -9 65 -16 6 -4
12 -5 12 -1 0 3 9 1 20 -5 27 -15 27 10 0 30 -11 8 -20 21 -20 29 0 12 3 12
12 3 16 -16 25 -15 31 2 4 11 1 13 -11 9 -15 -6 -15 -4 -4 10 11 13 17 14 32
5 10 -7 16 -16 14 -20 -3 -4 0 -8 5 -8 6 0 10 -3 9 -7 -1 -5 3 -18 10 -30 7
-13 10 -23 6 -23 -4 0 1 -9 11 -20 13 -14 25 -18 43 -13 20 5 24 3 20 -9 -4
-9 0 -15 8 -15 8 0 14 4 14 9 0 5 12 1 28 -8 25 -15 25 -15 -3 7 -18 14 -44
24 -65 25 -32 0 -35 3 -38 31 -3 28 -1 31 19 26 21 -6 21 -7 4 -20 -11 -7 -17
-13 -14 -14 2 0 11 -2 20 -4 12 -2 15 4 13 21 -3 30 -13 46 -24 39 -5 -3 -15
3 -22 15 -7 11 -20 20 -28 20 -13 0 -13 1 0 10 9 6 11 10 3 10 -7 0 -10 7 -6
15 6 18 29 14 25 -5 -4 -19 9 -51 19 -45 5 4 9 11 9 16 0 6 -4 7 -10 4 -16
-10 -12 12 6 29 8 9 11 16 5 16 -6 0 -3 8 7 18 9 11 20 17 23 15 4 -1 10 4 13
13 4 11 2 15 -8 11 -10 -4 -14 0 -11 14 5 26 14 39 27 39 7 0 7 -4 0 -13 -8
-9 -4 -15 14 -24 20 -9 24 -9 24 5 0 12 6 8 18 -10 9 -16 23 -28 32 -28 13 0
13 -1 0 -10 -13 -8 -12 -10 3 -10 10 0 16 -4 13 -9 -3 -5 0 -11 7 -14 18 -7
15 25 -3 50 -10 13 -10 15 -1 6 7 -6 20 -9 29 -6 9 4 13 2 9 -4 -4 -6 -2 -13
4 -15 9 -3 7 -12 -5 -30 -16 -24 -16 -26 0 -32 9 -3 22 -2 29 4 9 8 14 5 18
-10 5 -20 27 -28 27 -10 0 6 -4 10 -10 10 -5 0 -7 7 -3 15 3 9 8 13 11 11 3
-3 11 -1 19 5 10 9 13 8 13 -5 0 -9 -4 -16 -10 -16 -5 0 -10 -9 -10 -20 0 -11
-6 -20 -14 -20 -8 0 -16 -7 -20 -15 -4 -13 -2 -14 14 -5 17 9 20 8 20 -9 0
-13 5 -18 14 -15 9 4 13 -2 11 -20 -2 -15 1 -24 6 -20 5 3 7 10 4 15 -4 5 -1
17 4 26 8 13 10 14 11 4 0 -11 3 -12 12 -3 16 16 52 -4 43 -25 -3 -9 6 -4 21
10 14 15 30 24 35 22 4 -3 10 -1 13 4 5 8 -15 8 -34 1 -3 -1 -8 -2 -12 -1 -5
0 -8 -5 -8 -12 0 -6 -5 -4 -11 6 -6 9 -14 15 -20 12 -5 -4 -9 1 -9 10 0 9 4
14 9 11 5 -4 11 -1 13 5 2 6 16 13 32 14 27 3 27 3 9 -18 -14 -16 -14 -19 -1
-9 9 7 27 10 41 7 19 -5 28 -2 35 12 6 10 20 19 31 20 12 1 19 -2 16 -7 -3 -4
4 -6 16 -3 15 4 22 0 26 -16 3 -11 9 -18 14 -15 5 3 9 -1 9 -9 0 -7 7 -14 15
-14 18 0 20 14 2 20 -9 3 -9 7 1 20 8 9 12 22 9 29 -3 8 -6 6 -6 -5 -1 -10 -6
-15 -11 -12 -6 4 -8 11 -5 16 3 5 -1 6 -9 3 -11 -4 -16 0 -16 10 0 17 -15 22
-24 7 -4 -5 0 -12 6 -14 8 -4 7 -6 -4 -6 -12 -1 -16 6 -14 27 4 33 35 43 43
13 3 -12 9 -21 14 -21 12 0 11 17 -1 25 -6 4 -8 11 -4 16 3 6 11 4 18 -6 10
-14 12 -13 14 10 1 18 -2 24 -11 19 -6 -4 -3 2 7 14 21 24 40 29 33 10 -2 -7
-10 -12 -16 -10 -7 1 -9 -2 -6 -8 4 -6 10 -9 13 -6 3 3 14 -2 25 -11 19 -17
20 -17 14 0 -4 9 -2 17 3 17 14 0 12 -24 -2 -38 -9 -9 -8 -12 7 -13 40 -1 70
-6 86 -13 10 -5 16 -2 16 9 0 8 -5 15 -10 15 -5 0 -4 7 3 15 7 9 11 18 8 20
-3 3 -10 -6 -17 -18 -9 -18 -19 -23 -37 -19 -13 2 -21 8 -18 13 3 5 0 9 -5 9
-6 0 -11 4 -11 9 0 5 8 7 19 4 10 -3 22 1 26 8 5 7 4 10 -3 5 -6 -3 -13 -2
-17 4 -3 5 1 10 9 10 9 0 16 5 16 11 0 5 -4 7 -10 4 -5 -3 -10 1 -10 9 0 9 5
16 11 16 6 0 9 6 6 14 -3 8 -3 17 1 21 4 4 8 11 8 16 1 5 2 13 3 18 0 5 12 11
25 13 18 4 23 1 18 -10 -4 -11 -2 -13 9 -7 12 8 12 6 0 -9 -8 -9 -20 -15 -28
-12 -16 6 -16 5 -3 -28 9 -26 -3 -38 -13 -13 -3 7 -6 5 -6 -5 -1 -10 3 -18 8
-18 5 0 17 -3 26 -6 13 -5 16 -2 13 17 -2 14 2 24 10 25 6 1 19 2 28 3 8 0 12
6 9 11 -3 6 1 13 9 16 9 3 16 10 16 16 0 5 -4 6 -10 3 -5 -3 -15 6 -22 20 -7
15 -14 21 -18 15 -5 -7 -11 -6 -20 5 -10 12 -10 15 4 15 10 0 14 5 11 10 -3 6
-1 10 4 10 6 0 11 -7 11 -16 0 -8 4 -13 10 -9 5 3 6 13 3 23 -6 14 -4 15 9 5
22 -18 31 -4 10 16 -10 9 -12 12 -5 7 7 -5 13 -5 13 -2 0 4 6 1 14 -6 8 -7 12
-15 11 -18 -2 -3 -6 -25 -8 -48 -5 -39 -4 -41 14 -31 16 8 17 13 8 31 -10 18
-9 20 5 15 10 -4 15 -3 11 3 -3 6 1 10 10 10 9 0 13 5 10 10 -5 8 -11 7 -21
-1 -8 -6 -17 -9 -21 -5 -3 3 -1 6 5 6 15 0 9 43 -6 48 -7 2 -12 9 -12 15 0 6
11 0 24 -12 17 -16 25 -19 28 -9 3 7 -5 18 -16 23 -22 11 -29 50 -9 50 6 0 15
3 19 8 4 4 -2 7 -14 7 -12 0 -22 -4 -22 -10 0 -14 -37 -13 -46 1 -4 8 -9 7
-15 -2 -13 -21 -11 -41 4 -34 6 4 4 0 -7 -9 -10 -8 -16 -22 -13 -30 4 -9 2
-18 -3 -21 -6 -4 -10 13 -10 40 0 28 -4 44 -10 40 -5 -3 -10 1 -10 9 0 19 -46
22 -53 4 -4 -10 -8 -9 -16 2 -9 12 -14 13 -31 2 -12 -7 -20 -8 -20 -2 0 5 -5
10 -11 10 -5 0 -7 -6 -3 -12 5 -8 0 -7 -11 2 -14 11 -19 12 -22 3 -3 -7 -9
-13 -14 -13 -6 0 -7 5 -4 10 4 6 -8 10 -28 10 -23 0 -34 -5 -34 -15 0 -11 7
-13 26 -8 22 5 23 4 10 -9 -7 -9 -19 -14 -25 -11 -6 2 -14 -3 -18 -12 -5 -13
-2 -15 17 -9 12 4 36 8 52 9 22 1 29 6 27 19 -3 16 -2 16 22 1 14 -10 23 -22
20 -27 -4 -6 -9 -6 -14 2 -5 8 -9 7 -14 -5 -4 -11 -10 -14 -19 -8 -11 7 -32 9
-47 3 -16 -6 -45 -8 -52 -4 -4 3 -4 13 1 22 6 12 5 24 -5 37 -10 13 -14 15
-14 4 0 -12 -2 -12 -10 1 -6 10 -9 5 -8 -18 1 -18 -2 -35 -5 -39 -4 -3 -2 -12
4 -19 7 -8 6 -14 -2 -20 -8 -5 -9 -3 -5 5 5 8 0 14 -13 18 -20 5 -21 6 -4 20
16 13 16 14 1 9 -9 -2 -19 1 -21 9 -6 15 1 25 17 25 6 0 4 -5 -4 -10 -13 -8
-12 -10 3 -10 20 0 23 15 5 27 -19 11 -50 14 -44 4 3 -5 -1 -12 -9 -15 -9 -3
-18 1 -21 9 -7 16 -34 21 -34 6 0 -5 7 -12 16 -15 9 -3 12 -11 8 -18 -5 -7 -2
-9 8 -6 8 4 21 2 29 -3 12 -7 12 -9 -1 -10 -8 -1 -19 -1 -24 0 -5 1 -13 -4
-18 -11 -7 -9 -8 -4 -5 15 3 17 0 26 -7 24 -6 -2 -10 -14 -10 -27 0 -17 7 -26
24 -31 l25 -6 -24 -4 c-24 -4 -25 -4 -5 -23 18 -18 18 -19 1 -13 -10 4 -25 7
-33 7 -8 0 -14 4 -14 10 0 5 8 6 18 3 15 -6 15 -5 3 10 -11 14 -17 15 -30 5
-9 -7 -19 -17 -23 -23 -5 -7 -8 -7 -8 0 1 15 23 40 43 48 21 8 23 27 1 27 -8
0 -13 -4 -10 -9 3 -5 -5 -11 -19 -13 -21 -4 -23 -3 -14 13 6 13 6 25 -3 39
-10 16 -23 20 -65 19 -42 -1 -50 -4 -45 -17 3 -10 1 -13 -6 -8 -6 4 -12 -4
-15 -21 l-4 -28 -2 28 c-1 26 -29 47 -62 47 -12 0 -12 -27 0 -32 5 -1 2 -10
-7 -18 -14 -13 -15 -13 -10 1 3 8 1 22 -6 31 -9 12 -33 15 -126 15 -63 -1
-105 -2 -92 -5 12 -2 22 -8 22 -13 0 -6 -5 -7 -10 -4 -6 3 -10 -1 -10 -11 0
-13 -5 -11 -25 10 -26 28 -65 35 -65 12 0 -8 8 -13 18 -11 9 1 12 0 5 -2 -6
-2 -14 -12 -16 -21 -3 -11 -7 -6 -12 15 l-7 32 -139 0 -139 1 0 -360z"/>
<path d="M4847 4990 c-16 -5 -37 -7 -48 -5 -13 3 -19 0 -16 -8 2 -7 15 -12 29
-13 14 -1 29 -4 35 -7 5 -3 17 3 26 14 9 10 22 19 28 19 8 0 8 -5 -1 -15 -11
-13 -10 -14 5 -9 13 5 16 4 11 -4 -4 -7 -16 -12 -28 -12 -11 0 -22 -8 -25 -19
-3 -11 -10 -18 -17 -15 -7 3 -12 -6 -14 -21 -1 -17 2 -24 9 -19 7 4 7 -1 -1
-16 -11 -20 -10 -21 9 -15 25 8 28 -7 4 -26 -9 -8 -14 -9 -10 -2 4 7 -1 14
-13 18 -11 3 -25 15 -31 26 -12 23 -29 16 -29 -11 0 -12 10 -21 30 -25 17 -4
28 -11 24 -16 -3 -5 3 -9 13 -10 10 0 2 -6 -17 -13 -38 -13 -65 -3 -56 20 4
11 2 11 -14 1 -23 -14 -27 -29 -6 -21 11 4 13 -1 10 -18 -4 -21 -4 -21 5 -3 8
18 9 19 16 3 4 -10 4 -25 1 -34 -3 -8 -2 -12 4 -9 6 3 10 0 10 -7 0 -8 5 -6
11 5 8 14 14 16 25 6 8 -6 14 -17 14 -24 0 -17 -28 -27 -33 -12 -2 7 -4 0 -3
-14 1 -19 5 -25 16 -21 13 5 13 4 0 -13 -14 -17 -14 -17 8 -4 12 8 18 15 13
17 -6 2 -7 10 -4 18 5 13 8 13 15 2 8 -10 9 -9 5 4 -3 9 -1 19 6 22 9 3 9 5 0
5 -7 1 -10 8 -7 16 5 13 -5 19 -27 17 -4 -1 -9 7 -12 18 -3 14 0 18 14 17 11
-1 19 -8 20 -17 0 -9 4 -6 9 8 12 30 22 28 10 -2 -5 -13 -6 -27 -2 -31 4 -4 8
-11 8 -16 1 -5 2 -13 3 -19 0 -5 5 -10 9 -10 10 0 9 30 -2 50 -4 8 1 5 12 -7
13 -14 23 -18 29 -12 6 6 15 4 24 -8 13 -16 12 -17 -3 -4 -21 16 -23 3 -3 -23
14 -19 41 -13 29 6 -5 7 -2 9 7 6 11 -4 15 7 17 49 3 43 0 53 -10 48 -10 -6
-11 -5 0 6 6 7 12 28 12 47 0 26 -3 33 -15 28 -8 -3 -15 -1 -15 4 0 6 7 10 15
10 12 0 15 13 15 55 l0 55 -62 -1 c-35 0 -76 -5 -91 -9z"/>
<path d="M2618 4739 c-60 -14 -216 -79 -278 -115 -32 -19 -61 -34 -64 -34 -3
0 4 21 14 46 46 106 18 98 -133 -38 -87 -80 -100 -88 -125 -81 -40 11 -202 8
-312 -6 -117 -15 -130 -19 -130 -36 0 -21 39 -44 154 -92 93 -39 98 -42 62
-43 -33 0 -38 -3 -33 -20 4 -15 -7 -27 -48 -55 -77 -51 -79 -51 -113 -9 -23
27 -43 40 -83 50 -119 31 -158 16 -270 -102 -159 -168 -190 -194 -279 -239
-47 -24 -112 -51 -143 -60 -64 -19 -82 -40 -71 -88 16 -75 119 -370 160 -459
24 -54 44 -101 44 -107 0 -35 -72 -170 -163 -305 -59 -88 -107 -163 -107 -168
0 -9 39 -11 160 -8 l84 2 -24 -22 c-25 -21 -25 -21 -2 -17 12 3 22 3 22 0 0
-13 -48 -83 -102 -150 -53 -66 -71 -103 -50 -103 4 0 39 -10 77 -21 39 -10 93
-22 120 -25 28 -4 51 -7 52 -8 2 -1 -9 -37 -24 -79 -15 -42 -24 -80 -20 -83 4
-4 25 -7 47 -6 22 1 40 -1 40 -3 0 -3 -14 -35 -31 -71 -30 -66 -32 -87 -5 -65
12 10 15 -8 21 -123 4 -74 4 -180 0 -236 l-7 -103 37 6 c20 3 71 26 114 51 43
26 80 46 83 46 3 0 8 -24 12 -52 4 -29 16 -71 26 -93 10 -22 24 -52 29 -68 6
-15 17 -27 25 -27 8 0 51 43 97 96 45 52 86 91 90 87 5 -5 14 -35 22 -68 7
-32 18 -60 23 -62 6 -2 19 16 30 39 18 40 22 43 71 50 68 10 127 -9 131 -43 2
-19 -7 -30 -41 -52 -24 -15 -71 -53 -105 -85 -42 -41 -82 -69 -135 -92 -87
-38 -102 -61 -113 -167 -4 -40 -15 -78 -25 -93 -27 -37 -94 -232 -113 -330
-17 -86 -17 -113 4 -176 7 -19 10 -40 8 -46 -3 -7 1 -19 8 -26 8 -7 18 -31 25
-54 9 -33 8 -49 -6 -84 -9 -24 -21 -47 -27 -51 -8 -4 -9 0 -5 11 5 14 3 17 -8
12 -9 -3 -15 0 -15 8 0 8 -7 17 -16 20 -9 4 -14 13 -10 21 3 8 0 15 -7 15 -7
0 -25 19 -41 41 -31 44 -79 79 -109 79 -10 0 -16 4 -13 9 3 4 -9 8 -27 8 -17
0 -68 6 -112 13 -44 7 -100 14 -125 15 -30 1 -44 6 -42 14 1 7 -2 10 -8 6 -6
-3 -8 -10 -5 -15 3 -5 -8 -5 -24 0 -16 4 -33 5 -37 2 -5 -4 -2 1 5 10 7 10 16
16 19 15 7 -2 12 7 12 23 0 5 -11 -2 -25 -16 -26 -26 -62 -28 -57 -3 2 11 0
11 -10 -2 -15 -17 -42 -30 -75 -35 -18 -2 -22 2 -20 19 1 12 7 25 12 29 6 4 2
8 -9 8 -11 0 -16 -5 -13 -14 3 -8 -1 -13 -11 -13 -21 1 -73 -21 -53 -22 7 -1
11 -7 7 -16 -3 -9 0 -15 10 -15 9 0 12 5 8 13 -6 9 -4 9 6 0 12 -11 11 -15 -6
-27 -10 -8 -21 -10 -22 -5 -6 15 -42 10 -42 -6 0 -9 6 -12 17 -8 13 4 11 -1
-7 -18 -28 -28 -47 -32 -47 -12 0 8 6 12 13 9 23 -9 24 7 2 37 -20 28 -20 29
-1 19 25 -14 45 -2 33 18 -6 8 -10 11 -10 7 0 -4 -9 -3 -21 3 -15 8 -24 8 -34
0 -10 -8 -15 -8 -21 1 -4 8 -3 9 4 5 7 -4 12 -2 12 5 0 6 -8 9 -18 7 -12 -3
-19 0 -19 9 0 9 6 11 16 7 30 -13 54 -9 56 9 2 9 -1 17 -6 17 -5 0 -9 10 -8
23 l0 22 9 -22 c6 -15 15 -20 29 -16 11 3 17 11 15 18 -3 7 2 15 12 19 11 4
15 2 11 -8 -7 -18 18 -40 35 -31 7 4 5 0 -5 -8 -24 -20 -21 -28 6 -18 12 5 21
14 20 20 -2 6 5 8 15 5 9 -2 7 1 -6 7 -12 7 -22 17 -22 23 0 6 -3 21 -6 34 -4
13 -2 22 5 22 6 0 10 -5 8 -11 -1 -6 4 -14 12 -17 9 -3 11 0 6 8 -6 10 -4 12
8 7 8 -3 18 0 20 7 4 9 -2 11 -20 8 -19 -4 -24 -1 -21 9 3 8 13 13 23 11 11
-2 14 1 9 9 -4 7 -7 23 -8 37 -1 14 -7 27 -14 28 -7 1 -8 0 -2 -3 12 -6 14
-33 2 -33 -5 0 -13 10 -19 22 -6 15 -12 18 -17 10 -4 -7 -2 -12 3 -12 6 0 11
-5 11 -11 0 -5 -4 -8 -9 -4 -5 3 -13 1 -16 -5 -4 -6 -1 -9 6 -8 8 2 14 -7 15
-20 1 -12 -3 -22 -8 -22 -6 0 -8 7 -4 15 3 8 1 15 -5 15 -7 0 -9 -10 -5 -26 5
-19 4 -24 -6 -18 -7 4 -5 -2 5 -13 9 -11 17 -26 17 -34 -1 -9 -7 -7 -19 8 -10
12 -21 19 -25 16 -3 -4 -6 -1 -6 6 0 7 -4 9 -10 6 -5 -3 -10 3 -10 14 0 12 -4
21 -9 21 -6 0 -6 -12 0 -32 12 -42 11 -48 -2 -48 -6 0 -8 7 -5 15 4 10 -3 20
-19 27 -14 6 -25 16 -25 22 0 6 5 5 12 -2 14 -14 28 -16 28 -3 0 16 -41 20
-47 5 -8 -23 -36 -17 -30 6 3 12 -1 24 -11 30 -10 5 -12 10 -5 10 7 0 10 6 7
14 -3 8 -1 17 5 21 6 3 11 2 11 -3 0 -6 10 -8 22 -4 l22 5 -24 9 c-15 5 -28 4
-38 -4 -13 -11 -15 -10 -10 9 4 13 2 26 -3 29 -5 3 -9 11 -8 17 0 9 2 9 6 0 2
-7 11 -13 19 -13 8 0 14 -6 14 -12 0 -10 2 -10 8 -1 10 15 52 9 64 -9 6 -10 8
-8 8 5 0 9 5 17 11 17 5 0 7 -5 3 -11 -4 -8 0 -8 15 0 11 7 21 17 20 24 0 9
-2 9 -6 0 -2 -7 -9 -13 -14 -13 -6 0 -8 4 -4 9 3 5 1 12 -5 16 -6 4 -8 10 -6
14 3 3 -4 7 -15 7 -19 0 -19 -1 2 -17 26 -20 10 -29 -39 -22 -36 6 -51 21 -32
33 9 5 9 9 1 14 -6 4 -11 1 -11 -6 -1 -8 -8 -4 -19 9 -10 12 -21 19 -25 16
-10 -10 -7 -25 3 -18 5 3 12 1 15 -4 6 -9 -22 -26 -36 -23 -5 1 -8 -3 -8 -10
0 -6 -6 -3 -14 7 -13 18 -13 17 -11 -6 3 -32 2 -31 26 -18 15 8 19 8 15 0 -4
-6 -3 -11 3 -11 5 0 7 -15 5 -32 -4 -26 -2 -30 6 -18 9 13 11 12 8 -5 -2 -14
-11 -20 -30 -20 -15 -1 -31 -5 -35 -9 -5 -5 -2 -6 6 -1 10 6 13 4 9 -6 -3 -8
0 -23 8 -33 7 -11 11 -23 8 -27 -3 -5 0 -9 7 -9 7 0 4 -6 -6 -14 -11 -8 -24
-12 -28 -9 -5 3 -4 9 2 13 7 3 9 15 5 24 -6 15 -9 12 -21 -15 -13 -31 -7 -48
18 -49 4 0 10 -7 13 -16 3 -8 2 -12 -4 -9 -6 4 -15 -4 -20 -17 -10 -21 -10
-21 -7 -2 3 12 1 27 -3 34 -10 16 -33 2 -26 -15 3 -8 -3 -19 -12 -27 -15 -12
-16 -11 -3 5 10 13 10 17 1 17 -10 0 -10 3 0 15 10 12 10 15 0 15 -7 0 -2 9
11 20 15 12 19 19 10 20 -11 0 -11 3 2 18 18 19 17 74 -2 80 -6 2 -9 8 -6 13
4 5 -1 6 -9 3 -9 -3 -16 -10 -16 -16 0 -5 5 -6 12 -2 7 4 8 3 4 -4 -11 -18
-21 -15 -50 14 -20 21 -26 23 -26 10 0 -15 -12 -21 -33 -17 -5 1 -6 -3 -2 -8
3 -6 12 -8 20 -4 8 3 15 0 15 -7 0 -6 -5 -8 -10 -5 -6 3 -10 2 -10 -3 0 -6 6
-12 14 -15 10 -4 16 2 18 20 3 26 4 26 21 9 10 -10 26 -16 37 -13 15 4 30 -9
30 -28 0 -7 -65 20 -72 30 -4 6 -8 0 -8 -13 0 -13 4 -20 10 -17 6 3 7 -1 4
-10 -5 -11 -1 -14 16 -13 23 3 38 -26 19 -38 -5 -3 -9 5 -9 17 0 22 0 22 -14
3 -14 -18 -15 -18 -21 9 -4 15 -11 27 -17 27 -5 0 -6 -5 -3 -11 4 -6 -2 -5
-13 2 -12 7 -20 15 -19 18 1 4 -5 15 -13 26 -17 22 -51 27 -58 7 -6 -19 -29
-14 -35 9 -4 14 1 23 16 28 12 5 24 7 27 4 7 -6 -23 -22 -32 -17 -4 3 -5 -2
-2 -10 5 -14 8 -14 21 -1 8 9 18 13 22 10 5 -2 7 7 5 20 -1 14 2 23 7 19 5 -3
9 0 9 5 0 11 -11 14 -27 9 -5 -2 -7 -7 -5 -13 2 -5 -2 -5 -9 2 -10 10 -10 15
0 27 11 13 9 15 -10 11 -17 -4 -20 -2 -11 7 7 7 12 20 12 30 0 9 7 21 16 26
11 6 13 11 5 16 -6 4 -11 2 -11 -3 0 -6 -10 -11 -23 -11 -23 0 -23 0 -24 -161
-1 -144 1 -160 15 -156 10 2 16 9 14 16 -1 7 2 10 7 6 16 -9 1 -35 -20 -35
-10 0 -19 -7 -19 -15 0 -18 16 -20 23 -2 4 9 6 9 6 -1 1 -7 -6 -15 -14 -18
-11 -5 -14 -27 -13 -115 1 -64 5 -106 11 -102 5 3 5 -3 -1 -13 -6 -11 -10 -36
-10 -57 0 -34 2 -37 25 -32 14 2 22 1 18 -3 -3 -4 -11 -8 -16 -8 -5 -1 -13 -2
-17 -3 -5 0 -9 -62 -9 -136 l-2 -135 337 0 337 0 2 68 c1 37 7 81 14 97 7 17
14 41 16 55 2 14 11 32 19 41 8 8 14 21 14 27 0 8 22 12 65 12 71 0 79 -8 41
-43 -28 -27 -56 -79 -56 -106 0 -37 63 -151 82 -151 17 0 17 2 4 29 -9 16 -12
31 -9 35 4 3 1 6 -4 6 -9 0 -11 20 -3 40 1 3 1 10 0 15 -3 15 -10 59 -12 72
-1 10 -5 10 -15 1 -7 -6 -16 -8 -19 -5 -4 3 12 24 34 46 22 22 43 37 46 34 3
-4 6 -1 6 4 0 6 8 10 18 8 9 -2 22 -4 29 -4 6 -1 9 -10 5 -23 -3 -13 -1 -19 5
-15 6 4 15 -5 22 -20 7 -16 8 -28 3 -32 -15 -9 -35 -91 -33 -136 2 -67 17 -59
19 9 0 43 7 76 18 96 19 31 19 31 -11 104 -7 16 -5 17 16 11 13 -4 28 -13 34
-20 5 -6 22 -19 37 -28 15 -9 29 -29 33 -46 3 -16 13 -35 20 -41 8 -7 28 -41
45 -76 l32 -64 331 1 c183 0 326 3 319 6 -6 2 -9 10 -5 16 4 7 -1 6 -11 -2
-15 -13 -18 -12 -23 7 -3 12 -9 20 -13 17 -4 -2 -14 1 -23 8 -15 10 -15 15 -4
37 11 22 11 28 0 38 -13 13 -18 163 -18 547 0 85 -5 146 -14 175 -8 25 -15 47
-16 50 0 3 -11 27 -25 53 -18 36 -29 47 -42 44 -20 -6 -24 3 -8 19 7 7 2 10
-14 10 -14 0 -22 -4 -20 -8 3 -4 -2 -8 -10 -8 -26 0 -30 -2 -43 -19 -7 -9 -13
-12 -13 -6 0 5 -7 0 -15 -12 -9 -12 -21 -20 -28 -17 -9 3 -12 -10 -9 -48 1
-29 2 -61 3 -72 0 -10 7 -29 16 -42 9 -14 13 -27 10 -30 -3 -4 5 -18 19 -32
13 -15 24 -31 24 -37 0 -5 -5 -3 -10 5 -5 8 -10 11 -10 5 1 -5 7 -19 15 -29 8
-10 12 -23 9 -27 -3 -5 0 -9 6 -9 6 0 8 11 6 26 -4 21 -3 24 9 14 8 -7 12 -16
10 -21 -3 -4 3 -17 14 -28 12 -12 18 -27 15 -36 -7 -17 -24 -21 -24 -5 0 6 -4
10 -9 10 -6 0 -9 -9 -8 -19 1 -19 18 -18 45 2 12 10 14 4 15 -50 1 -13 5 -23
9 -23 13 0 9 -65 -4 -79 -10 -11 -10 -13 0 -7 6 4 12 2 12 -3 0 -6 -11 -11
-25 -11 -17 0 -25 -6 -25 -17 0 -13 3 -14 12 -5 7 7 19 12 27 11 10 0 11 -2 4
-5 -7 -3 -9 -12 -6 -20 3 -8 2 -14 -3 -13 -23 4 -35 -2 -27 -13 13 -22 13 -40
-1 -29 -8 7 -15 4 -24 -9 -10 -16 -9 -18 4 -13 14 5 15 3 3 -18 -7 -13 -12
-27 -11 -31 1 -5 -7 -8 -18 -8 -14 0 -18 -5 -13 -17 6 -16 5 -16 -11 -4 -15
13 -19 13 -27 0 -6 -10 -9 -11 -9 -1 0 7 -3 11 -7 9 -5 -3 -14 1 -21 9 -7 8
-10 14 -7 14 3 0 0 6 -7 14 -7 8 -16 12 -19 10 -12 -7 -16 33 -6 52 9 17 9 18
-6 5 -15 -12 -17 -10 -17 17 0 17 -4 33 -9 36 -4 3 -11 29 -14 58 -3 29 -15
82 -27 117 -47 141 -45 195 17 391 42 134 56 160 89 160 13 0 24 4 24 9 0 6
12 9 28 7 15 -1 33 2 39 7 16 11 83 0 83 -14 0 -6 -4 -7 -10 -4 -5 3 -10 1
-10 -4 0 -6 7 -11 15 -11 8 0 15 4 15 9 0 4 12 6 26 3 21 -4 25 -9 21 -28 -2
-13 0 -24 4 -24 5 0 9 8 9 18 0 11 5 8 15 -12 18 -33 19 -39 5 -31 -5 3 -10 1
-10 -4 0 -6 9 -11 19 -11 20 0 42 -45 37 -77 -2 -10 -1 -12 1 -5 3 7 9 10 14
6 5 -3 7 -10 4 -15 -4 -5 -1 -9 5 -9 6 0 8 -5 5 -11 -4 -6 -14 -8 -22 -5 -8 4
-11 1 -8 -5 4 -6 13 -8 20 -5 7 2 23 -7 36 -20 18 -19 21 -27 10 -33 -10 -6
-9 -10 4 -14 9 -4 13 -3 10 3 -3 6 -4 10 -1 10 10 0 35 -58 28 -65 -4 -5 -1
-5 6 -1 7 4 26 -3 45 -18 17 -15 37 -30 42 -34 11 -9 20 -12 34 -12 5 0 13 -9
16 -21 7 -20 37 -56 53 -61 4 -2 6 -6 5 -10 -2 -4 5 -4 14 -1 11 4 14 3 9 -5
-5 -8 -2 -10 8 -6 11 4 16 0 16 -10 0 -9 5 -16 11 -16 5 0 7 -4 4 -10 -9 -14
8 -13 23 2 9 9 12 9 12 0 0 -7 15 -18 32 -25 32 -13 33 -14 33 -83 0 -60 -3
-70 -20 -76 -19 -6 -19 -6 1 -7 21 -1 21 -5 19 -158 -2 -183 2 -223 22 -223
12 0 14 46 13 313 -2 359 -3 337 8 337 5 0 12 -53 16 -118 4 -64 9 -128 11
-142 2 -14 4 -41 6 -60 2 -31 3 -32 6 -8 4 25 7 27 45 23 22 -2 37 -1 33 3 -4
4 -11 8 -16 8 -5 1 -11 2 -14 3 -3 0 2 12 10 25 11 16 13 26 6 31 -6 3 -11 -1
-11 -9 0 -9 -4 -16 -10 -16 -5 0 -9 -3 -7 -8 1 -4 -1 -8 -5 -10 -20 -6 -28 0
-27 21 0 12 3 17 5 10 6 -13 34 -6 34 8 0 4 -6 6 -14 3 -8 -3 -19 3 -25 15
-10 17 -9 20 5 14 14 -5 15 -3 4 16 -6 13 -9 25 -6 28 3 3 8 -1 12 -10 3 -9
12 -13 22 -10 11 5 14 2 9 -10 -3 -9 -1 -19 5 -23 6 -4 8 -3 5 3 -4 6 0 16 8
23 8 7 15 8 15 3 0 -5 11 -15 25 -21 24 -11 35 -42 15 -42 -5 0 -10 -4 -10
-10 0 -17 37 -11 51 8 13 15 12 16 -3 4 -15 -12 -17 -11 -15 7 2 29 25 26 33
-3 3 -14 12 -27 19 -29 20 -8 16 -57 -5 -57 -10 0 -25 -3 -33 -6 -9 -3 -17 0
-20 8 -2 7 -3 5 -1 -5 1 -9 -3 -23 -9 -30 -7 -6 -13 -39 -14 -71 -2 -56 -16
-82 -35 -70 -14 9 -8 24 10 25 14 0 14 2 -3 9 -31 13 -38 12 -30 -7 4 -10 8
-23 8 -30 0 -7 4 -10 9 -7 13 8 9 -8 -5 -20 -7 -6 -10 -10 -8 -9 2 2 11 -3 19
-10 13 -10 15 -9 10 4 -3 9 -2 22 3 30 6 9 9 -3 7 -38 -2 -28 -6 -49 -10 -46
-10 5 -10 -10 -2 -31 14 -36 33 -11 69 89 42 117 46 121 132 110 43 -5 56 -11
62 -28 7 -18 20 -130 21 -174 0 -25 19 -12 22 15 2 15 8 26 16 24 10 -2 10 3
-1 20 -17 28 -17 64 0 61 7 -2 10 4 6 13 -5 13 -7 13 -14 2 -6 -9 -9 -7 -9 9
0 17 5 20 23 17 20 -4 20 -4 -3 6 -20 9 -22 13 -10 20 8 5 10 10 4 10 -16 0
-23 34 -11 55 7 13 6 16 -2 11 -7 -4 -11 0 -11 12 0 21 -18 32 -51 32 -25 0
-25 30 0 57 11 12 18 23 15 26 -8 8 23 27 50 29 14 1 26 6 26 10 0 4 7 5 15 2
8 -4 13 -10 10 -14 -3 -4 3 -10 13 -12 12 -3 18 1 18 12 0 9 -5 17 -11 16 -19
-2 -16 19 4 22 23 4 31 -20 20 -60 -4 -15 -3 -30 2 -33 5 -4 5 -13 0 -23 -9
-18 -10 -72 -1 -72 3 0 5 -18 6 -40 0 -22 -3 -40 -8 -40 -4 0 -8 5 -8 10 0 6
-6 10 -12 10 -7 -1 -3 -9 10 -19 15 -13 18 -21 10 -24 -10 -4 -10 -6 0 -6 14
-1 17 -31 2 -31 -5 0 -10 5 -10 12 0 6 -6 3 -14 -7 -8 -11 -12 -24 -8 -29 3
-5 -2 -7 -11 -3 -10 3 -17 2 -17 -3 0 -12 20 -13 39 -1 7 5 10 15 7 22 -4 8
-1 6 8 -5 11 -13 12 -25 5 -43 -11 -30 -11 -36 -1 -29 4 2 8 -4 8 -14 0 -10
-4 -16 -8 -14 -4 3 -5 -2 -2 -10 5 -13 28 -16 134 -16 122 0 128 1 133 22 4
15 10 19 19 12 8 -5 6 -2 -4 8 -25 23 -24 58 3 58 11 0 18 -4 15 -8 -3 -5 1
-9 9 -9 10 0 12 4 5 12 -5 7 -7 14 -5 17 3 3 -6 4 -20 3 -29 -4 -33 9 -7 25
16 11 16 11 0 6 -12 -4 -18 0 -18 10 0 11 6 14 18 10 16 -6 16 -5 0 8 -10 7
-18 19 -18 27 0 11 2 11 10 -1 6 -9 10 -10 10 -3 0 6 -4 15 -10 18 -13 8 -13
91 0 116 8 13 7 19 0 19 -6 0 -8 5 -5 10 4 6 12 7 18 3 8 -5 8 -2 -1 9 -10 12
-9 18 3 28 8 7 15 17 15 23 0 6 -6 2 -14 -8 -13 -18 -14 -14 -14 40 0 33 5 68
10 77 5 11 5 18 0 18 -13 0 -5 89 10 117 6 12 15 20 20 17 4 -3 8 -1 8 3 0 18
69 85 81 78 8 -5 9 -1 4 14 -7 23 11 55 26 46 4 -3 12 2 17 12 8 13 13 15 24
5 12 -9 15 -9 15 3 0 8 -4 12 -8 9 -4 -2 -10 -1 -13 4 -6 9 103 108 116 105 4
-2 8 2 8 8 0 15 51 80 59 75 4 -3 13 0 21 6 12 8 12 9 -2 4 -24 -7 -22 3 5 28
13 12 21 28 19 35 -3 8 0 11 7 7 6 -4 11 0 11 9 0 9 4 14 9 11 5 -3 8 2 7 11
0 10 9 20 24 24 14 4 20 7 13 8 -11 1 -12 25 -1 37 4 3 17 0 30 -7 l23 -12
-20 22 c-14 16 -16 24 -7 30 20 12 62 73 56 82 -3 5 2 9 11 9 9 0 14 3 12 7
-3 5 1 14 9 21 12 11 14 10 15 -5 1 -18 1 -17 15 26 3 10 7 11 19 1 8 -7 13
-15 11 -19 -3 -4 6 -8 19 -9 19 -1 23 2 18 15 -4 10 -8 12 -11 5 -3 -9 -7 -8
-17 1 -18 17 -9 27 26 27 21 0 28 -4 23 -12 -4 -7 2 -5 13 4 25 23 33 23 33
-2 0 -11 5 -20 11 -20 7 0 9 -10 7 -25 -3 -14 -2 -27 1 -30 4 -2 8 6 8 17 3
30 11 34 30 15 16 -16 16 -17 0 -17 -10 0 -17 -8 -17 -17 0 -12 3 -14 8 -6 10
16 23 5 43 -34 11 -20 14 -34 7 -41 -6 -6 -5 -12 3 -17 8 -5 10 -4 5 3 -4 7
-3 12 2 12 12 0 64 -134 69 -177 3 -25 -11 -64 -59 -161 -34 -70 -65 -129 -68
-132 -12 -9 -22 -45 -25 -84 -1 -21 -7 -41 -12 -45 -6 -3 -13 -23 -17 -44 -4
-21 -11 -35 -15 -33 -4 3 -6 -6 -3 -19 3 -20 1 -24 -12 -19 -12 5 -15 2 -10
-10 4 -11 2 -16 -7 -14 -9 2 -13 -5 -12 -22 2 -22 2 -23 -6 -5 -4 11 -7 25 -6
30 1 6 0 7 -2 3 -3 -5 -9 -8 -15 -8 -6 0 -3 12 7 26 9 14 14 28 11 32 -3 3 -6
-1 -6 -9 0 -11 -2 -11 -10 1 -7 11 -10 11 -10 2 0 -7 -4 -10 -10 -7 -5 3 -10
-1 -10 -10 0 -19 -34 -17 -36 3 -3 25 -4 27 -13 14 -12 -20 31 -64 54 -55 14
5 16 3 10 -7 -6 -10 -4 -12 8 -7 12 4 15 0 13 -21 -4 -37 -48 -41 -64 -6 -9
18 -19 24 -42 24 -17 0 -29 -4 -26 -9 3 -5 -1 -11 -9 -14 -9 -4 -12 -1 -8 9 3
7 1 14 -5 14 -5 0 -12 14 -14 30 -5 30 6 41 16 18 3 -7 2 0 -1 16 -5 24 -3 28
11 23 9 -4 16 -2 16 3 0 5 8 6 17 3 13 -5 13 -3 -3 13 -12 12 -20 15 -22 8 -2
-7 -11 -14 -21 -17 -16 -4 -18 0 -14 27 3 17 8 33 11 36 4 3 8 14 9 25 3 48
33 148 50 166 11 14 12 18 1 23 -7 3 -3 3 10 0 26 -6 29 4 6 21 -13 9 -13 12
-3 13 8 0 31 3 52 5 20 3 37 1 37 -5 0 -5 -4 -7 -9 -4 -5 3 -14 -1 -21 -9 -7
-8 -8 -15 -3 -15 6 0 9 -14 7 -31 -2 -19 0 -28 7 -23 6 3 8 12 5 19 -2 7 2 25
10 39 7 15 13 33 11 39 -1 7 3 11 9 10 6 -1 11 4 11 12 0 11 -5 10 -22 -3 -23
-18 -87 -24 -82 -7 1 5 10 10 19 10 24 2 29 8 18 25 -8 13 -10 12 -10 -2 0
-10 -4 -18 -10 -18 -16 0 -12 15 8 33 20 19 37 23 27 7 -3 -6 -1 -10 4 -10 6
0 11 6 11 13 0 18 35 49 44 40 4 -5 7 -3 5 2 -4 16 20 67 39 82 9 7 13 13 7
12 -29 -4 -31 2 -21 46 6 25 14 45 18 45 5 0 8 8 7 18 0 10 -3 12 -6 5 -2 -7
-9 -13 -14 -13 -4 0 -6 6 -3 14 3 8 0 17 -6 21 -9 6 -9 10 1 17 10 6 7 7 -9 3
-21 -6 -23 -4 -17 17 l7 23 -17 -22 c-9 -13 -24 -23 -34 -23 -9 0 -22 -5 -28
-11 -7 -7 -22 -12 -35 -13 -13 -1 -22 -7 -21 -14 3 -11 -17 -17 -40 -13 -5 1
-6 -3 -2 -8 3 -6 13 -7 22 -4 11 4 14 3 9 -5 -4 -7 -13 -12 -19 -12 -7 0 -14
-10 -14 -22 -1 -13 -6 -24 -11 -26 -5 -1 -7 -14 -4 -29 4 -19 1 -24 -9 -21 -8
3 -13 12 -11 20 3 20 -25 31 -32 13 -3 -10 0 -12 11 -8 10 4 14 2 9 -5 -3 -6
-2 -13 3 -16 5 -4 8 -19 6 -34 -2 -15 -4 -33 -4 -39 -1 -7 -9 -13 -18 -13 -14
0 -15 -2 -4 -9 11 -7 11 -19 -3 -72 -8 -35 -20 -124 -26 -198 -7 -74 -16 -157
-21 -185 -6 -28 -11 -63 -12 -78 -1 -15 -7 -32 -14 -39 -6 -6 -9 -18 -6 -25 3
-8 0 -14 -7 -14 -6 0 -8 -4 -5 -10 7 -12 -75 -170 -92 -177 -7 -3 -13 -12 -13
-20 0 -10 -6 -13 -16 -9 -8 3 -12 2 -9 -4 3 -6 -1 -10 -9 -10 -8 0 -18 -9 -21
-20 -8 -24 -25 -27 -25 -4 0 9 5 12 13 8 8 -5 8 -3 -2 9 -18 23 -32 12 -21
-17 7 -19 4 -28 -14 -45 -12 -11 -30 -21 -40 -21 -9 0 -14 -5 -11 -10 3 -6 2
-10 -4 -10 -18 0 -20 16 -5 45 19 36 13 53 -10 30 -10 -10 -15 -26 -13 -36 3
-11 1 -19 -4 -19 -5 0 -9 -5 -9 -11 0 -5 4 -7 10 -4 5 3 10 1 10 -5 0 -6 -7
-13 -15 -16 -8 -4 -15 -12 -15 -20 0 -11 27 -14 139 -14 83 0 142 4 146 10 8
13 65 13 65 0 0 -6 55 -10 144 -10 136 0 145 1 151 20 3 11 11 20 16 20 5 0 9
6 9 14 0 7 12 27 28 43 15 17 41 46 57 64 17 19 54 55 84 79 29 25 65 55 80
67 14 13 33 23 41 23 8 0 26 9 40 20 14 11 33 20 43 20 9 0 17 4 17 9 0 5 12
8 27 8 39 0 109 -76 118 -128 7 -40 0 -136 -16 -204 -4 -22 -9 -43 -9 -47 0
-5 144 -8 320 -8 l320 0 0 99 c0 59 -4 102 -10 106 -8 5 -8 11 -1 19 6 7 11
63 10 132 0 114 -1 117 -16 86 -13 -26 -18 -30 -34 -21 -25 13 -24 -2 1 -29
12 -12 16 -22 11 -22 -6 0 -8 -6 -5 -13 3 -8 -2 -19 -10 -26 -8 -7 -12 -20 -9
-29 4 -14 3 -14 -5 -3 -6 8 -8 20 -6 26 3 7 -1 15 -9 18 -10 4 -13 -2 -10 -21
3 -25 3 -25 -6 -5 -5 12 -18 27 -28 33 -16 10 -16 11 0 6 11 -4 17 0 17 11 0
12 3 13 14 4 15 -13 49 -4 40 10 -3 5 -10 7 -15 4 -5 -4 -19 1 -31 9 -17 12
-19 16 -6 16 9 0 19 -6 21 -12 3 -7 6 -4 6 7 1 12 6 26 13 33 9 9 9 12 -1 12
-7 0 -9 4 -6 10 3 5 2 10 -4 10 -5 0 -8 8 -7 18 3 20 43 25 50 6 4 -10 -1 -11
-22 -4 -22 8 -24 8 -11 -2 9 -7 15 -23 14 -35 -2 -33 21 -28 39 9 22 44 20 61
-10 79 -21 13 -23 17 -10 22 9 4 15 2 13 -5 -1 -6 4 -13 11 -15 9 -4 12 21 12
100 0 75 -4 107 -12 110 -10 4 -10 6 0 6 6 1 12 9 12 20 0 22 -23 44 -35 33
-5 -4 -5 -1 -1 6 6 9 11 10 20 2 11 -8 13 8 13 77 0 59 -2 78 -7 58 -4 -16 -8
-22 -9 -12 0 9 -6 17 -12 17 -6 0 -8 -9 -4 -21 5 -15 4 -19 -4 -15 -17 11 -12
186 5 186 8 0 14 6 14 13 0 8 4 7 10 -3 8 -13 10 -12 10 3 0 16 -9 21 -27 15
-5 -2 -7 -6 -6 -10 2 -5 -1 -8 -6 -8 -5 0 -12 33 -16 73 -19 186 -70 285 -246
470 -85 90 -136 133 -146 124 -3 -3 3 -28 12 -56 33 -101 15 -245 -48 -370
-45 -90 -98 -138 -185 -165 -21 -7 -21 -6 -7 21 13 25 20 53 12 53 -24 0 -235
-84 -253 -101 -13 -12 -26 -21 -28 -18 -6 6 -77 180 -89 219 -7 19 -31 54 -54
77 -29 28 -52 65 -73 116 -16 42 -30 79 -30 84 0 35 -97 75 -210 88 -63 7
-110 23 -110 37 0 8 18 5 56 -9 19 -7 23 10 13 61 -5 27 -8 51 -6 52 1 1 27
-13 57 -32 30 -19 79 -47 108 -62 65 -33 66 -32 83 101 11 86 14 97 26 81 12
-17 13 -16 13 5 0 18 9 10 39 -35 49 -74 89 -113 95 -93 2 8 14 50 26 94 13
44 29 93 37 109 25 49 63 216 63 277 0 33 4 59 9 59 4 0 19 -8 32 -19 25 -19
84 -51 94 -51 12 0 -6 123 -26 190 -11 36 -31 84 -44 108 l-24 42 45 0 c24 0
44 5 44 10 0 6 -8 10 -17 10 -29 1 5 16 52 24 45 8 115 35 115 46 0 14 -55 62
-137 122 -46 33 -83 62 -83 63 0 1 29 0 65 -3 37 -3 65 -1 65 5 0 7 -55 71
-182 207 -18 20 -16 36 5 36 19 0 134 57 183 91 l46 32 -33 26 c-19 14 -59 51
-90 81 -30 30 -97 93 -148 139 -138 125 -133 105 -68 268 116 290 165 523 121
567 -29 30 -88 36 -239 24 -192 -14 -294 0 -455 62 -150 58 -179 65 -214 56
-27 -7 -28 -8 -102 -78 l-49 -47 -110 34 c-117 37 -221 55 -316 55 -32 0 -59
4 -59 8 0 12 39 61 88 112 51 53 96 125 87 140 -7 12 -85 12 -137 -1z m761
-1875 l32 -7 -3 -76 -3 -76 -37 -6 c-20 -3 -41 -3 -46 0 -5 3 -7 43 -4 89 5
87 5 87 61 76z m-5 -306 c-15 -22 -36 -45 -46 -53 -18 -12 -18 -14 -3 -29 17
-16 40 -13 30 4 -5 9 14 16 60 22 11 2 26 9 34 16 15 15 37 10 34 -7 -4 -16 4
-14 27 9 11 11 15 20 8 20 -9 0 -9 3 0 12 10 10 15 10 22 -2 8 -12 13 -13 30
-2 24 15 74 16 65 2 -4 -6 10 1 29 14 32 21 40 23 76 14 40 -11 53 -33 25 -44
-8 -4 -15 -10 -15 -15 0 -12 61 -67 83 -74 29 -11 20 -48 -24 -90 -39 -36 -47
-40 -167 -61 -172 -31 -162 -32 -162 19 0 36 -6 48 -32 73 -37 34 -121 70
-155 65 -18 -2 -22 1 -16 15 5 14 3 16 -13 10 -36 -14 -167 -46 -191 -46 -12
0 -23 -5 -23 -11 0 -13 68 -5 149 17 29 8 56 13 59 10 3 -3 -2 -6 -11 -6 -9 0
-50 -34 -91 -74 -41 -41 -76 -70 -79 -63 -2 6 -23 -8 -47 -31 -39 -37 -89 -62
-126 -62 -7 0 -19 -17 -27 -39 -20 -48 -38 -55 -82 -34 -31 15 -44 15 -110 4
-40 -6 -90 -9 -109 -6 -27 6 -39 3 -57 -14 -20 -19 -77 -41 -140 -55 -15 -3
-38 -22 -54 -46 l-28 -41 -23 22 c-14 13 -45 25 -76 30 -35 6 -59 16 -70 30
-10 11 -23 19 -30 16 -7 -2 -20 1 -28 8 -19 15 -105 42 -145 46 -64 6 -116
-46 -163 -160 -12 -29 -22 -69 -22 -87 0 -23 -6 -37 -19 -44 -32 -17 -46 -12
-28 8 17 19 23 62 9 62 -4 0 -8 -10 -9 -22 -2 -24 -20 -39 -39 -31 -20 8 -34
61 -28 111 4 35 3 43 -5 32 -6 -8 -11 -39 -11 -68 0 -43 5 -57 25 -78 25 -25
33 -40 15 -29 -5 3 -10 2 -10 -3 0 -13 -67 -20 -83 -10 -9 6 -9 10 3 18 12 8
10 10 -10 11 -14 1 -29 2 -35 3 -14 2 -104 60 -105 67 0 4 22 28 49 55 66 65
68 78 14 75 -52 -3 -53 5 -15 73 l27 49 95 1 c80 1 94 -1 91 -14 -2 -8 -4 -20
-5 -26 -1 -6 -10 -19 -20 -30 -12 -12 -15 -19 -7 -22 6 -2 21 8 32 22 15 20
24 24 34 16 18 -15 57 21 44 41 -7 12 -9 11 -9 -3 0 -9 -4 -19 -8 -22 -12 -7
-52 5 -52 16 0 5 9 7 20 3 15 -5 18 -3 14 9 -7 17 20 20 66 7 14 -4 43 -4 65
0 24 4 45 3 53 -3 7 -6 12 -6 12 -1 0 5 28 19 63 32 34 12 71 28 81 36 26 20
21 19 -43 -5 -29 -12 -100 -26 -156 -32 -90 -10 -107 -10 -147 5 -87 34 -159
124 -128 162 6 7 35 21 63 31 29 9 56 20 62 25 5 5 -13 2 -40 -7 -28 -8 -56
-16 -62 -16 -7 -1 -13 -5 -13 -9 0 -4 -7 -10 -15 -13 -19 -7 -30 19 -39 87 -6
41 -1 53 17 46 1 -1 27 10 57 23 30 13 61 23 68 22 6 -1 16 -2 21 -3 5 0 17
-27 27 -58 10 -31 25 -64 33 -73 9 -8 26 -29 38 -45 20 -28 22 -29 40 -12 11
9 24 17 30 17 5 0 15 12 22 26 6 15 14 24 17 21 3 -3 -2 -17 -11 -31 -12 -18
-14 -30 -7 -43 7 -12 7 -24 0 -37 -24 -45 79 -63 152 -26 49 25 74 61 97 138
10 34 24 62 31 62 6 0 12 -6 12 -13 0 -24 -33 -111 -55 -147 -12 -19 -25 -42
-29 -50 -6 -13 -6 -13 6 0 25 29 102 80 120 80 10 0 27 5 38 12 15 10 26 10
53 0 18 -7 42 -12 51 -12 13 0 17 -5 13 -20 -6 -25 32 -57 79 -66 19 -3 37
-10 40 -15 7 -12 24 -12 24 0 0 5 17 34 38 65 30 46 51 63 106 91 56 29 79 35
139 37 40 1 81 -1 92 -4 22 -6 100 -20 127 -23 9 -1 15 2 12 7 -3 4 -15 8 -26
8 -12 0 -43 23 -72 53 -64 66 -81 94 -66 112 22 27 48 23 81 -11 31 -32 34
-33 51 -18 9 9 15 22 11 28 -4 6 1 5 10 -3 20 -16 22 -9 5 18 -9 15 -9 23 1
35 14 17 71 19 71 3 0 -5 16 -7 35 -5 19 2 35 3 35 2 0 -2 -5 -15 -12 -31 -6
-15 -10 -32 -9 -36 1 -5 -3 -5 -9 -2 -6 4 -9 13 -6 20 5 13 -25 16 -35 2 -9
-13 -38 4 -32 19 3 8 -1 14 -9 14 -26 0 -28 -12 -6 -43 19 -27 25 -29 67 -24
25 2 54 8 64 12 12 5 17 2 17 -9 0 -16 -53 -50 -63 -40 -3 3 -13 7 -24 9 -10
2 -18 4 -18 5 0 1 -7 3 -17 5 -21 4 -30 -31 -12 -46 25 -21 111 -5 152 28 42
34 82 97 82 130 0 19 6 22 48 25 l47 3 3 -44 c3 -34 -3 -52 -24 -83z m17 -158
c21 -11 43 -29 49 -39 17 -32 12 -117 -9 -158 -35 -67 -36 -89 -7 -108 47 -31
59 -148 19 -195 -10 -12 -38 -36 -63 -53 -35 -25 -56 -31 -95 -32 -49 0 -63
-6 -133 -61 -15 -11 -72 -47 -127 -79 -126 -73 -136 -82 -129 -111 4 -17 0
-26 -18 -35 -12 -7 -26 -12 -30 -11 -4 1 -4 -6 -1 -15 4 -10 2 -14 -5 -10 -18
12 -293 6 -285 -5 2 -5 -1 -8 -6 -8 -6 0 -11 6 -11 14 0 8 -3 22 -7 32 -6 17
-5 17 17 1 23 -16 25 -16 47 5 13 12 23 25 23 30 0 14 -27 9 -40 -7 -11 -14
-15 -14 -32 2 -19 17 -20 17 -33 -1 -13 -17 -16 -17 -97 2 -46 11 -109 26
-141 33 -57 12 -73 33 -26 35 32 1 89 32 86 45 -1 7 4 14 11 16 6 3 12 0 12
-6 0 -6 5 -11 10 -11 6 0 10 8 8 18 -2 12 5 18 27 20 17 2 70 17 118 33 49 16
91 28 95 27 11 -3 76 14 87 22 6 4 30 11 55 15 25 4 50 11 56 17 7 5 27 10 45
12 19 2 47 9 62 15 67 26 116 34 146 21 16 -6 39 -9 50 -5 12 3 23 0 28 -8 10
-17 71 -42 81 -33 4 4 0 11 -8 16 -50 28 -78 67 -85 115 -4 28 -11 64 -15 80
-9 27 -15 160 -11 228 1 33 84 126 134 151 38 20 91 14 148 -14z m-382 -315
c0 -33 4 -76 9 -96 21 -80 25 -77 -163 -130 -186 -52 -458 -127 -491 -136 -20
-4 -21 0 -27 79 -4 47 -12 99 -18 116 -9 27 -7 37 16 75 14 26 35 47 48 50 12
3 72 19 132 37 61 18 135 35 167 39 l56 7 7 -55 c9 -72 21 -97 41 -80 8 6 13
21 13 33 -2 20 -2 20 -6 -1 -7 -37 -21 -26 -31 25 -11 52 -12 82 -3 82 3 -1
17 -7 31 -15 43 -24 63 -18 95 30 24 36 38 46 70 53 39 8 40 7 47 -23 4 -16 7
-57 7 -90z m-1006 5 c67 -21 97 -48 151 -134 32 -51 66 -175 66 -242 0 -65 -8
-81 -79 -152 -63 -64 -131 -78 -200 -43 -33 18 -40 27 -59 90 -23 77 -22 96 3
135 9 14 15 31 13 37 -2 6 -31 22 -63 34 l-60 22 1 56 c2 100 80 217 144 217
10 0 47 -9 83 -20z m2658 -415 c137 -145 206 -251 234 -363 16 -60 36 -348 29
-417 -15 -159 -15 -160 -90 -320 -7 -16 -14 -26 -14 -20 0 5 -10 -8 -21 -30
-28 -53 -58 -81 -74 -69 -7 5 -30 21 -51 35 -21 15 -51 38 -66 52 -15 14 -29
22 -32 20 -3 -3 -8 2 -12 11 -3 9 -10 13 -15 10 -5 -3 -9 -1 -9 3 0 5 9 14 21
21 12 8 18 19 15 28 -3 9 -1 25 5 36 6 11 12 60 14 108 3 92 7 114 31 167 11
24 12 38 5 52 -7 13 -7 29 1 51 8 25 8 34 -2 40 -11 7 -11 19 -1 64 7 31 9 61
5 67 -4 7 -3 9 3 6 15 -9 45 107 48 190 2 40 0 75 -6 78 -5 4 -9 19 -9 35 0
23 -53 151 -88 215 -10 17 29 -17 79 -70z m-1050 -35 c6 0 7 5 4 10 -9 14 55
10 77 -5 10 -7 15 -14 12 -17 -5 -6 -14 -49 -17 -81 -1 -10 -7 -15 -14 -13 -8
3 -10 -1 -6 -11 5 -12 3 -14 -7 -8 -8 5 -11 4 -7 -2 9 -14 -15 -73 -29 -73
-11 0 -13 -28 -2 -45 7 -11 -167 -281 -179 -278 -16 3 -43 -18 -43 -33 0 -8 4
-12 10 -9 6 3 7 -1 4 -9 -3 -9 -10 -16 -16 -16 -5 0 -17 -7 -26 -16 -15 -16
-17 -16 -27 0 -22 38 -35 49 -20 18 19 -40 11 -56 -24 -48 -18 5 -22 4 -12 -3
11 -7 6 -13 -25 -26 -39 -16 -90 -13 -79 5 3 5 0 7 -8 4 -14 -5 -39 18 -44 42
-7 34 -9 40 -17 54 -5 8 -6 12 -1 8 11 -11 36 12 28 25 -4 6 0 8 10 4 8 -3 21
1 27 9 7 8 9 14 5 14 -4 0 3 10 16 21 13 12 7 9 -14 -5 -20 -15 -42 -24 -49
-20 -6 4 -8 3 -5 -3 4 -6 1 -16 -6 -22 -11 -9 -13 -1 -13 42 1 34 5 51 13 50
6 -2 11 6 10 17 -1 15 -4 16 -15 8 -11 -9 -11 -7 -1 15 7 15 19 27 27 27 8 0
12 6 9 14 -8 19 19 42 27 24 3 -7 4 -4 1 7 -3 13 2 26 15 35 11 8 20 20 20 28
0 7 5 10 10 7 6 -3 11 0 11 7 1 7 2 18 4 23 1 6 3 16 3 23 1 7 7 10 12 7 6 -3
15 -3 21 1 8 5 8 8 0 14 -13 8 -4 40 11 40 7 0 6 -5 -1 -14 -9 -11 -6 -13 15
-13 19 0 22 2 13 8 -11 7 -9 10 9 15 12 4 23 10 23 15 1 5 2 13 3 18 2 18 16
24 29 13 17 -14 28 -6 20 16 -5 12 -2 14 11 9 13 -5 19 -1 23 13 3 11 12 20
20 20 9 0 24 10 34 21 11 12 25 19 34 15 8 -3 15 -2 15 2 0 4 9 8 21 8 14 0
19 -5 16 -18 -3 -10 -1 -16 4 -12 5 3 9 15 10 27 0 12 3 16 6 10 2 -7 9 -13
14 -13z m-1724 -197 c40 -6 86 -27 76 -36 -3 -4 -1 -7 6 -7 16 0 45 -29 37
-37 -7 -7 35 -39 47 -35 12 3 27 -46 20 -65 -5 -16 -4 -16 9 1 14 17 16 15 37
-30 28 -62 60 -113 88 -143 69 -73 77 -84 61 -78 -13 5 -18 1 -18 -13 0 -11
-5 -20 -10 -20 -6 0 -9 -3 -9 -7 1 -5 1 -19 0 -32 -1 -18 -5 -22 -21 -18 -11
3 -20 1 -20 -4 0 -5 4 -9 10 -9 5 0 7 -8 3 -17 -5 -15 -3 -14 10 2 19 25 27
18 20 -18 -4 -21 -8 -25 -14 -15 -7 10 -9 9 -9 -4 0 -10 4 -18 9 -18 6 0 6
-12 -1 -31 -7 -20 -13 -27 -18 -19 -5 9 -9 9 -14 1 -4 -6 -12 -9 -17 -6 -5 4
-9 1 -9 -5 0 -7 -13 -10 -32 -8 -21 2 -32 8 -30 16 1 8 -2 11 -8 7 -6 -4 -18
-1 -27 7 -10 8 -14 8 -10 1 12 -20 -13 -26 -33 -8 -11 10 -20 12 -24 6 -4 -7
-18 -4 -38 7 -38 21 -49 43 -19 37 15 -3 21 1 21 16 0 11 -7 19 -17 19 -15 0
-16 -2 -3 -10 12 -8 11 -10 -7 -10 -12 0 -23 -6 -26 -12 -3 -8 -9 -1 -16 15
-6 15 -19 36 -28 47 -10 10 -29 41 -43 67 -38 75 -89 154 -127 196 -20 22 -32
45 -29 53 3 8 1 12 -4 9 -5 -3 -12 6 -16 20 -3 13 -10 22 -15 19 -5 -3 -9 -1
-9 5 0 5 6 12 13 14 7 3 4 6 -6 6 -10 1 -16 5 -13 9 3 5 -1 9 -9 9 -12 0 -12
-3 -2 -16 10 -12 9 -14 -8 -7 -11 5 -25 9 -32 9 -9 0 -9 6 -2 19 6 10 14 16
20 13 5 -4 9 0 9 8 0 18 57 60 65 47 9 -14 28 -12 50 4 18 13 17 14 -10 9 -28
-4 -29 -3 -11 11 10 8 23 13 27 10 5 -3 15 -2 22 3 13 8 14 8 62 18 16 3 31 8
34 10 2 3 8 2 13 -2 6 -3 26 -8 45 -10z m955 -303 c-2 -17 3 -51 13 -76 17
-45 17 -46 -7 -72 -50 -55 -83 -104 -118 -179 -13 -28 -28 -49 -32 -47 -4 3
-5 -1 -2 -9 2 -7 0 -27 -7 -43 -6 -16 -13 -46 -15 -68 -2 -21 -7 -43 -11 -49
-4 -6 -6 -30 -4 -53 2 -30 -2 -43 -13 -47 -9 -4 -16 -15 -16 -26 0 -10 -7 -21
-15 -25 -23 -8 -51 26 -46 56 0 5 -3 8 -9 8 -13 0 -13 36 1 63 9 18 9 20 -2 9
-11 -10 -20 8 -50 100 -21 61 -35 116 -32 122 3 6 3 8 -2 4 -4 -4 -19 16 -33
45 -24 49 -80 123 -138 185 -59 64 -110 126 -99 120 30 -15 57 -19 137 -21 72
-2 88 1 88 13 0 13 1 13 10 0 5 -8 10 -10 10 -4 0 16 90 27 106 13 8 -6 56
-10 119 -10 60 1 105 -3 105 -8 0 -9 -40 -27 -49 -22 -2 2 -7 -2 -11 -8 -11
-19 -102 -26 -114 -9 -17 22 -79 45 -84 30 -2 -7 -9 -9 -15 -5 -7 4 -6 -1 2
-10 7 -9 23 -17 35 -17 13 0 36 -15 53 -35 17 -19 39 -35 48 -35 27 0 55 20
65 45 7 17 14 22 30 18 25 -7 70 15 70 34 0 7 -4 13 -10 13 -5 0 -10 5 -10 11
0 5 4 8 9 5 5 -3 14 1 21 9 18 21 27 11 22 -25z"/>
</g>
</svg>
